# xmcd
#
# Track frame offsets: 
#        150
#        24300
#        38256
#        57579
#        75088
#        93895
#        105514
#        120162
#        137400
#        156159
#        167047
#        184632
#
# Disc length: 2743 seconds
#
# Revision: 0
# Processed by: cddbd v1.5.2PL0 Copyright (c) Steve Scherf et al.
# Submitted via: ExactAudioCopy v1.0b4
#
DISCID=780ab50c
DTITLE=The Nighthawks - Back Porch Party
DYEAR=2015
DGENRE=Blues
TTITLE0=Rock This House
TTITLE1=Walkin' After Midnight
TTITLE2=Down In The Hole
TTITLE3=Matchbox
TTITLE4=Tiger In Your Tank
TTITLE5=Jana Lea
TTITLE6=Rollin' Stone
TTITLE7=Guard My Heart
TTITLE8=Down To My Last Million Tears
TTITLE9=Hey Miss Hey
TTITLE10=Rooster Blues
TTITLE11=Back To The City
EXTD=
EXTT0=
EXTT1=
EXTT2=
EXTT3=
EXTT4=
EXTT5=
EXTT6=
EXTT7=
EXTT8=
EXTT9=
EXTT10=
EXTT11=
PLAYORDER=
